<svg xmlns="http://www.w3.org/2000/svg" width="91" height="29" viewBox="0 0 91 29">
    <g fill="none" fill-rule="evenodd">
        <path fill="#212121" d="M0 0h91v29H0z"/>
        <g transform="translate(1.585 2)">
            <circle cx="43.709" cy="13.05" r="13.05" fill="#FFDC6C"/>
            <path fill="#202020" fill-rule="nonzero" d="M36.215 6.348h6.496c0-.287-.013-.59-.04-.91-.025-.32-.071-.681-.136-1.086h2.915c-.065.391-.11.753-.137 1.086-.026.333-.04.636-.04.91h6.3V11.2H49.05V8.48H38.778v2.74h-2.563V6.348zm7.357 11.485c-.379.339-.812.675-1.301 1.007-.49.333-1.001.65-1.536.95.352.09.6.143.743.156.144.013.3.02.47.02.652 0 1.086-.206 1.3-.617.216-.411.324-.916.324-1.516zm5.067-6.574l1.957 1.702-3.13 2.563c.247.339.567.694.958 1.066.391.372.815.727 1.272 1.067.443.352.9.671 1.37.958.469.287.9.496 1.29.626-.09.105-.215.251-.371.44l-.49.597c-.156.209-.31.405-.46.587-.15.183-.257.326-.322.43-.9-.56-1.754-1.17-2.563-1.829a13.972 13.972 0 0 1-2.191-2.24c.026.352.036.708.029 1.066a6.122 6.122 0 0 1-.108 1.047 4.716 4.716 0 0 1-.714 1.732c-.358.541-.812.903-1.36 1.086-.326.104-.645.179-.958.225a7.37 7.37 0 0 1-1.057.068 10.978 10.978 0 0 0-.381-1.203 6.839 6.839 0 0 0-.734-1.419c-.639.365-1.281.701-1.927 1.008-.646.306-1.203.564-1.673.773a714.88 714.88 0 0 1-.401-.714c-.15-.268-.29-.5-.42-.695a2.187 2.187 0 0 1-.138-.235A3.205 3.205 0 0 0 36 19.75a6.464 6.464 0 0 1-.108-.186.913.913 0 0 1-.068-.147 20.643 20.643 0 0 0 4.02-1.614c1.298-.685 2.43-1.496 3.395-2.436a.123.123 0 0 1-.03-.049.537.537 0 0 0-.029-.068.123.123 0 0 1-.029-.049.217.217 0 0 1-.01-.068l-.02-.02h-.019v-.04a27.003 27.003 0 0 1-2.935 1.87 22.653 22.653 0 0 1-2.954 1.379 9.388 9.388 0 0 0-.538-1.096 6.382 6.382 0 0 0-.616-.92c.495-.13 1.03-.31 1.604-.538a32.626 32.626 0 0 0 1.702-.733 24.526 24.526 0 0 0 1.517-.822 7.826 7.826 0 0 0 1.144-.802l.02.01a2.502 2.502 0 0 0-.196-.147c-.443.235-.86.44-1.252.616-.391.176-.783.336-1.174.48a26.251 26.251 0 0 1-2.68.763 46.695 46.695 0 0 1-.548-1.135 24.31 24.31 0 0 1-.294-.568l-.235-.47a9.536 9.536 0 0 0 1.458-.205 18.34 18.34 0 0 0 1.536-.4c.509-.157.998-.337 1.467-.539.47-.202.894-.414 1.272-.636h-2.191V9.165h9.45v2.015h-3.62a17.45 17.45 0 0 1-.362.274c-.124.092-.244.183-.362.274-.117.079-.235.16-.352.245l-.313.225c.326.352.668.73 1.027 1.135.359.404.63.763.812 1.076.248-.209.522-.447.822-.714.3-.268.587-.545.86-.832.288-.287.558-.567.813-.841.254-.274.473-.529.655-.763z"/>
            <path fill="#FFF" fill-rule="nonzero" d="M13.171 18.503c0 .646-.22 1.19-.66 1.63-.44.44-.983.66-1.629.66H9.597v-.44c-.763.199-1.391.31-1.884.334a20.78 20.78 0 0 1-1.444.053H1.233c-.4 0-.705-.103-.916-.308-.211-.206-.317-.508-.317-.907V4.663h8.487v1.779c0 .34-.088.59-.264.748-.176.158-.434.238-.775.238L3.575 7.41v10.6h2.782c.481 0 1.003-.035 1.567-.105.54-.059 1.098-.165 1.673-.317V4.61h3.574v13.893zm16.253-13.84v1.76c0 .341-.085.588-.255.74-.17.153-.426.23-.766.23h-11.71c-.34 0-.596-.077-.766-.23-.17-.152-.255-.399-.255-.74v-1.76h13.752zM16.57 14.982c-.34 0-.596-.077-.766-.23-.17-.152-.256-.398-.256-.739V12.27h2.202l-.159-4.35h3.575l.158 4.35h2.782l.176-4.35h3.557l-.176 4.35h1.92v1.743c0 .34-.085.587-.256.74-.17.152-.425.229-.766.229H16.57zm13.523 3.028v1.427c0 .399-.129.716-.387.95-.258.235-.593.353-1.004.353h-12.22c-.4 0-.731-.118-.995-.352-.264-.235-.396-.552-.396-.951V18.01h15.002zM64.878 12.34c-.516.951-1.429 1.785-2.738 2.5a8.549 8.549 0 0 1-4.164 1.075v-2.8c1.22 0 2.377-.425 3.469-1.276 1.091-.852 1.637-2.005 1.637-3.46V7.41h-3.909c-.34 0-.596-.076-.766-.229-.17-.153-.255-.399-.255-.74V4.664h13.382v1.779c0 .34-.085.586-.255.74-.17.152-.426.228-.766.228h-3.839v.968c0 1.456.543 2.61 1.63 3.46 1.085.852 2.238 1.277 3.46 1.277v2.8a8.5 8.5 0 0 1-4.156-1.074c-1.303-.716-2.213-1.55-2.73-2.5zm7.449 5.67v1.427c0 .399-.13.716-.388.95-.258.235-.592.353-1.003.353h-12.22c-.4 0-.732-.118-.996-.352-.264-.235-.396-.552-.396-.951V18.01h15.003zm1.25-10.688c0-.834.24-1.503.722-2.007.481-.505 1.133-.758 1.954-.758h3.329c.821 0 1.473.253 1.954.758.481.504.722 1.173.722 2.007v10.636c0 .821-.24 1.488-.722 1.998-.481.51-1.133.766-1.954.766h-3.329c-.821 0-1.473-.255-1.954-.766-.481-.51-.722-1.177-.722-1.998V7.322zm3.575 9.773c0 .364.058.601.176.713.117.111.27.167.457.167h.265c.187 0 .34-.056.457-.167.118-.112.176-.35.176-.713v-8.91c0-.376-.058-.617-.176-.722a.658.658 0 0 0-.457-.159h-.265a.658.658 0 0 0-.457.159c-.118.105-.176.346-.176.722v8.91zm9.455-7.008h2.448v1.936c0 .4-.126.687-.379.863-.252.176-.59.264-1.012.264h-1.057v5.353c0 .646-.22 1.19-.66 1.63-.44.44-.983.66-1.629.66h-1.285V4.61h3.574v5.477z"/>
        </g>
    </g>
</svg>
