<svg xmlns="http://www.w3.org/2000/svg" width="22" height="22" viewBox="0 0 22 22">
    <path fill="#D8D8D8" fill-rule="evenodd" d="M6.68 6.106A4.11 4.11 0 0 1 10.788 2a4.11 4.11 0 0 1 4.107 4.106 4.11 4.11 0 0 1-4.107 4.106A4.11 4.11 0 0 1 6.68 6.106m7.872 4.798a6.097 6.097 0 0 0 2.34-4.798A6.113 6.113 0 0 0 10.788 0 6.113 6.113 0 0 0 4.68 6.106c0 1.946.919 3.68 2.34 4.798C2.929 12.436 0 16.377 0 21a1 1 0 0 0 2 0c0-4.846 3.942-8.788 8.787-8.788 4.846 0 8.788 3.942 8.788 8.788a1 1 0 1 0 2 0c0-4.623-2.928-8.564-7.022-10.096"/>
</svg>
